<?xml version="1.0" encoding="UTF-8"?>
<svg width="167px" height="146px" viewBox="0 0 167 146" version="1.1" xmlns="http://www.w3.org/2000/svg" xmlns:xlink="http://www.w3.org/1999/xlink">
    <!-- Generator: Sketch 49.1 (51147) - http://www.bohemiancoding.com/sketch -->
    <title>151039</title>
    <desc>Created with Sketch.</desc>
    <defs></defs>
    <g id="Page-1" stroke="none" stroke-width="1" fill="none" fill-rule="evenodd">
        <g id="front" transform="translate(-1170.000000, -727.000000)" fill="#000000" fill-rule="nonzero">
            <g id="151039" transform="translate(1170.000000, 727.000000)">
                <g id="Group" transform="translate(83.500000, 73.000000) scale(-1, 1) rotate(-180.000000) translate(-83.500000, -73.000000) translate(0.000000, 0.000000)">
                    <path d="M70.9283538,145.312452 C70.9935932,145.051263 69.049457,141.655808 60.5030862,127.185942 C54.7359169,117.391357 39.3394015,91.2855255 26.2915071,69.1628244 C13.2436128,47.0401234 1.99632784,27.9602733 1.29174154,26.7588042 C0.574107352,25.5703947 0,24.525639 0,24.4603418 C0,24.3950446 2.67481835,18.9492557 5.93679194,12.3672951 C9.19876553,5.75921556 11.8344402,0.313426697 11.7822486,0.208951131 C11.7431049,0.0783566742 11.7952965,0.0130594457 11.9518712,0.0130594457 C20.8113915,-0.0261188914 100.768888,0.0391783371 123.420033,0.104475566 L155.178608,0.18283224 L158.440581,6.79091177 C160.228143,10.4214377 162.889913,15.8280482 164.364325,18.8056018 C165.82569,21.7831554 167.013048,24.3166879 166.986952,24.4342229 C166.960856,24.5517579 150.924994,51.8721183 131.327057,85.1345265 L95.7063052,145.61282 L83.2716618,145.625879 L70.8500664,145.625879 L70.9283538,145.312452 Z M102.269396,132.657849 C106.157669,126.03671 122.01086,99.1081334 137.498711,72.8194692 L165.656067,25.021898 L160.697867,24.9435413 C157.957809,24.8913035 131.653254,24.8129468 102.2433,24.7607091 C57.4237831,24.6823524 48.7730291,24.6954118 48.8252207,24.8521252 C48.8904602,25.0088385 61.0641456,47.1054207 61.5599656,47.9673441 L61.7687319,48.3330085 L95.4714431,48.3330085 C114.012501,48.3330085 129.174154,48.3591274 129.174154,48.3983058 C129.174154,48.4244247 120.471209,63.1946578 109.850223,81.2036334 C99.2161888,99.212609 86.4944918,120.773754 81.5754356,129.10568 C76.6694273,137.437607 72.5984843,144.306875 72.5332448,144.385232 C72.4680053,144.450529 72.4158137,144.555004 72.4158137,144.607242 C72.4158137,144.65948 77.5436362,144.711718 83.8066255,144.711718 L95.1843894,144.698658 L102.269396,132.657849 Z M86.0117197,119.44169 C93.8796,106.160234 106.418626,84.9516943 113.89507,72.3362698 C121.358466,59.7077858 127.477928,49.3516453 127.477928,49.312467 C127.477928,49.2732886 122.415345,49.2471697 116.230643,49.2471697 L104.97031,49.2471697 L93.8796,67.478156 C78.0003125,93.5839879 71.6329401,104.018485 71.5285569,104.122961 C71.4763653,104.175198 70.1846238,102.072628 68.6710681,99.4215601 C67.1575123,96.7835521 56.9671068,79.022706 46.0329713,59.9559152 C35.0988358,40.8891245 23.0686772,19.9156547 19.3108837,13.3728724 C15.5530901,6.81703066 12.4346433,1.44959847 12.3824518,1.44959847 C12.3302602,1.44959847 12.1736854,1.72384683 12.0301586,2.07645187 C11.8866318,2.41599746 9.34229237,7.56141906 6.39346824,13.5165263 C3.44464411,19.4585741 1.04383155,24.408104 1.06992734,24.4995201 C1.09602313,24.5909363 16.9361669,51.4933944 36.2731463,84.2856626 C62.6429409,129.001205 71.4763653,143.875913 71.5807485,143.758378 C71.6590359,143.666962 78.1568873,132.736206 86.0117197,119.44169 Z M76.3954215,94.3806141 C79.0310962,90.0840565 81.2361903,86.4404711 81.3014298,86.2837578 C81.4319087,85.99645 78.2221267,80.1066399 50.0517228,29.0833856 C48.4337839,26.1450103 47.1028987,23.7290128 47.1028987,23.7290128 C47.1028987,23.7159534 73.8119384,23.7420723 106.45777,23.7551317 L165.82569,23.8073695 L163.111727,18.3354618 C161.624268,15.3317893 159.106024,10.225546 157.501133,6.98680345 L154.591452,1.09699344 L106.431674,1.01863676 C53.2615048,0.914161199 13.3088523,0.901101754 13.3088523,0.979458428 C13.3088523,1.00557732 13.713337,1.72384683 14.209157,2.5727108 C15.4095632,4.66222212 49.529807,64.1349379 61.7034925,85.3695966 C67.0531292,94.7201597 71.4763653,102.333817 71.5285569,102.281579 C71.5807485,102.2424 73.7727947,98.6771717 76.3954215,94.3806141 Z M93.0967263,67.0080159 L103.874287,49.312467 L93.501211,49.2732886 C87.7992812,49.2602292 78.4439409,49.2602292 72.7028674,49.2732886 L62.2645519,49.312467 L72.141808,67.2430859 C80.6359872,82.6793508 82.0321119,85.1345265 82.1625908,84.9386349 C82.2539261,84.8080404 87.1729823,76.737303 93.0967263,67.0080159 Z" id="Shape"></path>
                </g>
            </g>
        </g>
    </g>
</svg>