<?xml version="1.0" encoding="UTF-8"?>
<svg width="127px" height="82px" viewBox="0 0 127 82" version="1.1" xmlns="http://www.w3.org/2000/svg" xmlns:xlink="http://www.w3.org/1999/xlink">
    <!-- Generator: Sketch 49.1 (51147) - http://www.bohemiancoding.com/sketch -->
    <title>Group 3</title>
    <desc>Created with Sketch.</desc>
    <defs></defs>
    <g id="Page-1" stroke="none" stroke-width="1" fill="none" fill-rule="evenodd">
        <g id="front" transform="translate(-484.000000, -160.000000)" stroke="#000000">
            <g id="Group-3" transform="translate(485.000000, 159.000000)">
                <g id="Group-2-Copy">
                    <ellipse id="Oval-4" cx="4" cy="10.5" rx="4" ry="8.5"></ellipse>
                    <path d="M121,18.5 C123.209139,18.5 125,14.8063492 125,10.25 C125,5.69365081 123.209139,2 121,2" id="Oval-4-Copy"></path>
                    <path d="M4.5,19.5 L121.606789,19.5" id="Line-4-Copy" stroke-linecap="square"></path>
                    <path d="M4.5,1.5 L121.606789,1.5" id="Line-4" stroke-linecap="square"></path>
                </g>
                <g id="Group-2-Copy-2" transform="translate(0.000000, 21.000000)">
                    <ellipse id="Oval-4" cx="4" cy="10.5" rx="4" ry="8.5"></ellipse>
                    <path d="M121,18.5 C123.209139,18.5 125,14.8063492 125,10.25 C125,5.69365081 123.209139,2 121,2" id="Oval-4-Copy"></path>
                    <path d="M4.5,19.5 L121.606789,19.5" id="Line-4-Copy" stroke-linecap="square"></path>
                    <path d="M4.5,1.5 L121.606789,1.5" id="Line-4" stroke-linecap="square"></path>
                </g>
                <g id="Group-2-Copy-3" transform="translate(0.000000, 42.000000)">
                    <ellipse id="Oval-4" cx="4" cy="10.5" rx="4" ry="8.5"></ellipse>
                    <path d="M121,18.5 C123.209139,18.5 125,14.8063492 125,10.25 C125,5.69365081 123.209139,2 121,2" id="Oval-4-Copy"></path>
                    <path d="M4.5,19.5 L121.606789,19.5" id="Line-4-Copy" stroke-linecap="square"></path>
                    <path d="M4.5,1.5 L121.606789,1.5" id="Line-4" stroke-linecap="square"></path>
                </g>
                <g id="Group-2-Copy-4" transform="translate(0.000000, 63.000000)">
                    <ellipse id="Oval-4" cx="4" cy="10.5" rx="4" ry="8.5"></ellipse>
                    <path d="M121,18.5 C123.209139,18.5 125,14.8063492 125,10.25 C125,5.69365081 123.209139,2 121,2" id="Oval-4-Copy"></path>
                    <path d="M4.5,19.5 L121.606789,19.5" id="Line-4-Copy" stroke-linecap="square"></path>
                    <path d="M4.5,1.5 L121.606789,1.5" id="Line-4" stroke-linecap="square"></path>
                </g>
            </g>
        </g>
    </g>
</svg>