<?xml version="1.0" encoding="UTF-8"?>
<svg width="159px" height="159px" viewBox="0 0 159 159" version="1.1" xmlns="http://www.w3.org/2000/svg" xmlns:xlink="http://www.w3.org/1999/xlink">
    <!-- Generator: Sketch 49.1 (51147) - http://www.bohemiancoding.com/sketch -->
    <title>Asset 1 Copy 5</title>
    <desc>Created with Sketch.</desc>
    <defs>
        <polygon id="path-1" points="0 37 37.1854839 0 159 0 121.814516 37"></polygon>
    </defs>
    <g id="Page-1" stroke="none" stroke-width="1" fill="none" fill-rule="evenodd">
        <g id="front" transform="translate(-463.000000, -405.000000)">
            <g id="Asset-1-Copy-5" transform="translate(462.000000, 403.000000)">
                <g id="Group-10-Copy-2" transform="translate(0.000000, 39.000000)" fill="#9B9B9B">
                    <g transform="translate(-20.000000, -18.000000)">
                        <circle id="Oval-2-Copy-2" cx="25" cy="2" r="2"></circle>
                        <circle id="Oval-2-Copy-3" cx="36" cy="2" r="2"></circle>
                        <circle id="Oval-2-Copy-4" cx="47" cy="2" r="2"></circle>
                        <circle id="Oval-2-Copy-5" cx="58" cy="2" r="2"></circle>
                        <circle id="Oval-2-Copy-6" cx="70" cy="2" r="2"></circle>
                        <circle id="Oval-2-Copy-7" cx="81" cy="2" r="2"></circle>
                        <circle id="Oval-2-Copy-8" cx="92" cy="2" r="2"></circle>
                        <circle id="Oval-2-Copy-9" cx="104" cy="2" r="2"></circle>
                        <circle id="Oval-2-Copy-10" cx="115" cy="2" r="2"></circle>
                        <circle id="Oval-2-Copy-11" cx="126" cy="2" r="2"></circle>
                        <circle id="Oval-2-Copy-12" cx="137" cy="2" r="2"></circle>
                        <circle id="Oval-2-Copy-13" cx="149" cy="2" r="2"></circle>
                        <circle id="Oval-2-Copy-14" cx="160" cy="2" r="2"></circle>
                        <circle id="Oval-2-Copy-27" cx="25" cy="13" r="2"></circle>
                        <circle id="Oval-2-Copy-26" cx="36" cy="13" r="2"></circle>
                        <circle id="Oval-2-Copy-25" cx="47" cy="13" r="2"></circle>
                        <circle id="Oval-2-Copy-24" cx="58" cy="13" r="2"></circle>
                        <circle id="Oval-2-Copy-23" cx="70" cy="13" r="2"></circle>
                        <circle id="Oval-2-Copy-22" cx="81" cy="13" r="2"></circle>
                        <circle id="Oval-2-Copy-21" cx="92" cy="13" r="2"></circle>
                        <circle id="Oval-2-Copy-20" cx="104" cy="13" r="2"></circle>
                        <circle id="Oval-2-Copy-19" cx="115" cy="13" r="2"></circle>
                        <circle id="Oval-2-Copy-18" cx="126" cy="13" r="2"></circle>
                        <circle id="Oval-2-Copy-17" cx="137" cy="13" r="2"></circle>
                        <circle id="Oval-2-Copy-16" cx="149" cy="13" r="2"></circle>
                        <circle id="Oval-2-Copy-15" cx="160" cy="13" r="2"></circle>
                        <circle id="Oval-2-Copy-42" cx="25" cy="24" r="2"></circle>
                        <circle id="Oval-2-Copy-41" cx="36" cy="24" r="2"></circle>
                        <circle id="Oval-2-Copy-40" cx="47" cy="24" r="2"></circle>
                        <circle id="Oval-2-Copy-39" cx="58" cy="24" r="2"></circle>
                        <circle id="Oval-2-Copy-38" cx="70" cy="24" r="2"></circle>
                        <circle id="Oval-2-Copy-37" cx="81" cy="24" r="2"></circle>
                        <circle id="Oval-2-Copy-36" cx="92" cy="24" r="2"></circle>
                        <circle id="Oval-2-Copy-35" cx="104" cy="24" r="2"></circle>
                        <circle id="Oval-2-Copy-34" cx="115" cy="24" r="2"></circle>
                        <circle id="Oval-2-Copy-33" cx="126" cy="24" r="2"></circle>
                        <circle id="Oval-2-Copy-32" cx="137" cy="24" r="2"></circle>
                        <circle id="Oval-2-Copy-31" cx="149" cy="24" r="2"></circle>
                        <circle id="Oval-2-Copy-30" cx="160" cy="24" r="2"></circle>
                        <circle id="Oval-2-Copy-57" cx="25" cy="35" r="2"></circle>
                        <circle id="Oval-2-Copy-56" cx="36" cy="35" r="2"></circle>
                        <circle id="Oval-2-Copy-55" cx="47" cy="35" r="2"></circle>
                        <circle id="Oval-2-Copy-54" cx="58" cy="35" r="2"></circle>
                        <circle id="Oval-2-Copy-53" cx="70" cy="35" r="2"></circle>
                        <circle id="Oval-2-Copy-52" cx="81" cy="35" r="2"></circle>
                        <circle id="Oval-2-Copy-51" cx="92" cy="35" r="2"></circle>
                        <circle id="Oval-2-Copy-50" cx="104" cy="35" r="2"></circle>
                        <circle id="Oval-2-Copy-49" cx="115" cy="35" r="2"></circle>
                        <circle id="Oval-2-Copy-48" cx="126" cy="35" r="2"></circle>
                        <circle id="Oval-2-Copy-47" cx="137" cy="35" r="2"></circle>
                        <circle id="Oval-2-Copy-46" cx="149" cy="35" r="2"></circle>
                        <circle id="Oval-2-Copy-45" cx="160" cy="35" r="2"></circle>
                        <circle id="Oval-2-Copy-117" cx="25" cy="46" r="2"></circle>
                        <circle id="Oval-2-Copy-116" cx="36" cy="46" r="2"></circle>
                        <circle id="Oval-2-Copy-115" cx="47" cy="46" r="2"></circle>
                        <circle id="Oval-2-Copy-114" cx="58" cy="46" r="2"></circle>
                        <circle id="Oval-2-Copy-113" cx="70" cy="46" r="2"></circle>
                        <circle id="Oval-2-Copy-112" cx="81" cy="46" r="2"></circle>
                        <circle id="Oval-2-Copy-111" cx="92" cy="46" r="2"></circle>
                        <circle id="Oval-2-Copy-110" cx="104" cy="46" r="2"></circle>
                        <circle id="Oval-2-Copy-109" cx="115" cy="46" r="2"></circle>
                        <circle id="Oval-2-Copy-108" cx="126" cy="46" r="2"></circle>
                        <circle id="Oval-2-Copy-107" cx="137" cy="46" r="2"></circle>
                        <circle id="Oval-2-Copy-106" cx="149" cy="46" r="2"></circle>
                        <circle id="Oval-2-Copy-105" cx="160" cy="46" r="2"></circle>
                        <circle id="Oval-2-Copy-102" cx="25" cy="57" r="2"></circle>
                        <circle id="Oval-2-Copy-101" cx="36" cy="57" r="2"></circle>
                        <circle id="Oval-2-Copy-100" cx="47" cy="57" r="2"></circle>
                        <circle id="Oval-2-Copy-99" cx="58" cy="57" r="2"></circle>
                        <circle id="Oval-2-Copy-98" cx="70" cy="57" r="2"></circle>
                        <circle id="Oval-2-Copy-97" cx="81" cy="57" r="2"></circle>
                        <circle id="Oval-2-Copy-96" cx="92" cy="57" r="2"></circle>
                        <circle id="Oval-2-Copy-95" cx="104" cy="57" r="2"></circle>
                        <circle id="Oval-2-Copy-94" cx="115" cy="57" r="2"></circle>
                        <circle id="Oval-2-Copy-93" cx="126" cy="57" r="2"></circle>
                        <circle id="Oval-2-Copy-92" cx="137" cy="57" r="2"></circle>
                        <circle id="Oval-2-Copy-91" cx="149" cy="57" r="2"></circle>
                        <circle id="Oval-2-Copy-90" cx="160" cy="57" r="2"></circle>
                        <circle id="Oval-2-Copy-87" cx="25" cy="68" r="2"></circle>
                        <circle id="Oval-2-Copy-86" cx="36" cy="68" r="2"></circle>
                        <circle id="Oval-2-Copy-85" cx="47" cy="68" r="2"></circle>
                        <circle id="Oval-2-Copy-84" cx="58" cy="68" r="2"></circle>
                        <circle id="Oval-2-Copy-83" cx="70" cy="68" r="2"></circle>
                        <circle id="Oval-2-Copy-82" cx="81" cy="68" r="2"></circle>
                        <circle id="Oval-2-Copy-81" cx="92" cy="68" r="2"></circle>
                        <circle id="Oval-2-Copy-80" cx="104" cy="68" r="2"></circle>
                        <circle id="Oval-2-Copy-79" cx="115" cy="68" r="2"></circle>
                        <circle id="Oval-2-Copy-78" cx="126" cy="68" r="2"></circle>
                        <circle id="Oval-2-Copy-77" cx="137" cy="68" r="2"></circle>
                        <circle id="Oval-2-Copy-76" cx="149" cy="68" r="2"></circle>
                        <circle id="Oval-2-Copy-75" cx="160" cy="68" r="2"></circle>
                        <circle id="Oval-2-Copy-72" cx="25" cy="79" r="2"></circle>
                        <circle id="Oval-2-Copy-71" cx="36" cy="79" r="2"></circle>
                        <circle id="Oval-2-Copy-70" cx="47" cy="79" r="2"></circle>
                        <circle id="Oval-2-Copy-69" cx="58" cy="79" r="2"></circle>
                        <circle id="Oval-2-Copy-68" cx="70" cy="79" r="2"></circle>
                        <circle id="Oval-2-Copy-67" cx="81" cy="79" r="2"></circle>
                        <circle id="Oval-2-Copy-66" cx="92" cy="79" r="2"></circle>
                        <circle id="Oval-2-Copy-65" cx="104" cy="79" r="2"></circle>
                        <circle id="Oval-2-Copy-64" cx="115" cy="79" r="2"></circle>
                        <circle id="Oval-2-Copy-63" cx="126" cy="79" r="2"></circle>
                        <circle id="Oval-2-Copy-62" cx="137" cy="79" r="2"></circle>
                        <circle id="Oval-2-Copy-61" cx="149" cy="79" r="2"></circle>
                        <circle id="Oval-2-Copy-60" cx="160" cy="79" r="2"></circle>
                        <circle id="Oval-2-Copy-237" cx="25" cy="90" r="2"></circle>
                        <circle id="Oval-2-Copy-236" cx="36" cy="90" r="2"></circle>
                        <circle id="Oval-2-Copy-235" cx="47" cy="90" r="2"></circle>
                        <circle id="Oval-2-Copy-234" cx="58" cy="90" r="2"></circle>
                        <circle id="Oval-2-Copy-233" cx="70" cy="90" r="2"></circle>
                        <circle id="Oval-2-Copy-232" cx="81" cy="90" r="2"></circle>
                        <circle id="Oval-2-Copy-231" cx="92" cy="90" r="2"></circle>
                        <circle id="Oval-2-Copy-230" cx="104" cy="90" r="2"></circle>
                        <circle id="Oval-2-Copy-229" cx="115" cy="90" r="2"></circle>
                        <circle id="Oval-2-Copy-228" cx="126" cy="90" r="2"></circle>
                        <circle id="Oval-2-Copy-227" cx="137" cy="90" r="2"></circle>
                        <circle id="Oval-2-Copy-226" cx="149" cy="90" r="2"></circle>
                        <circle id="Oval-2-Copy-225" cx="160" cy="90" r="2"></circle>
                        <circle id="Oval-2-Copy-222" cx="25" cy="101" r="2"></circle>
                        <circle id="Oval-2-Copy-221" cx="36" cy="101" r="2"></circle>
                        <circle id="Oval-2-Copy-220" cx="47" cy="101" r="2"></circle>
                        <circle id="Oval-2-Copy-219" cx="58" cy="101" r="2"></circle>
                        <circle id="Oval-2-Copy-218" cx="70" cy="101" r="2"></circle>
                        <circle id="Oval-2-Copy-217" cx="81" cy="101" r="2"></circle>
                        <circle id="Oval-2-Copy-216" cx="92" cy="101" r="2"></circle>
                        <circle id="Oval-2-Copy-215" cx="104" cy="101" r="2"></circle>
                        <circle id="Oval-2-Copy-214" cx="115" cy="101" r="2"></circle>
                        <circle id="Oval-2-Copy-213" cx="126" cy="101" r="2"></circle>
                        <circle id="Oval-2-Copy-212" cx="137" cy="101" r="2"></circle>
                        <circle id="Oval-2-Copy-211" cx="149" cy="101" r="2"></circle>
                        <circle id="Oval-2-Copy-210" cx="160" cy="101" r="2"></circle>
                        <circle id="Oval-2-Copy-207" cx="25" cy="112" r="2"></circle>
                        <circle id="Oval-2-Copy-206" cx="36" cy="112" r="2"></circle>
                        <circle id="Oval-2-Copy-205" cx="47" cy="112" r="2"></circle>
                        <circle id="Oval-2-Copy-204" cx="58" cy="112" r="2"></circle>
                        <circle id="Oval-2-Copy-203" cx="70" cy="112" r="2"></circle>
                        <circle id="Oval-2-Copy-202" cx="81" cy="112" r="2"></circle>
                        <circle id="Oval-2-Copy-201" cx="92" cy="112" r="2"></circle>
                        <circle id="Oval-2-Copy-200" cx="104" cy="112" r="2"></circle>
                        <circle id="Oval-2-Copy-199" cx="115" cy="112" r="2"></circle>
                        <circle id="Oval-2-Copy-198" cx="126" cy="112" r="2"></circle>
                        <circle id="Oval-2-Copy-197" cx="137" cy="112" r="2"></circle>
                        <circle id="Oval-2-Copy-196" cx="149" cy="112" r="2"></circle>
                        <circle id="Oval-2-Copy-195" cx="160" cy="112" r="2"></circle>
                        <circle id="Oval-2-Copy-192" cx="25" cy="123" r="2"></circle>
                        <circle id="Oval-2-Copy-191" cx="36" cy="123" r="2"></circle>
                        <circle id="Oval-2-Copy-190" cx="47" cy="123" r="2"></circle>
                        <circle id="Oval-2-Copy-189" cx="58" cy="123" r="2"></circle>
                        <circle id="Oval-2-Copy-188" cx="70" cy="123" r="2"></circle>
                        <circle id="Oval-2-Copy-187" cx="81" cy="123" r="2"></circle>
                        <circle id="Oval-2-Copy-186" cx="92" cy="123" r="2"></circle>
                        <circle id="Oval-2-Copy-185" cx="104" cy="123" r="2"></circle>
                        <circle id="Oval-2-Copy-184" cx="115" cy="123" r="2"></circle>
                        <circle id="Oval-2-Copy-183" cx="126" cy="123" r="2"></circle>
                        <circle id="Oval-2-Copy-182" cx="137" cy="123" r="2"></circle>
                        <circle id="Oval-2-Copy-181" cx="149" cy="123" r="2"></circle>
                        <circle id="Oval-2-Copy-180" cx="160" cy="123" r="2"></circle>
                        <circle id="Oval-2-Copy-177" cx="25" cy="134" r="2"></circle>
                        <circle id="Oval-2-Copy-176" cx="36" cy="134" r="2"></circle>
                        <circle id="Oval-2-Copy-175" cx="47" cy="134" r="2"></circle>
                        <circle id="Oval-2-Copy-174" cx="58" cy="134" r="2"></circle>
                        <circle id="Oval-2-Copy-173" cx="70" cy="134" r="2"></circle>
                        <circle id="Oval-2-Copy-172" cx="81" cy="134" r="2"></circle>
                        <circle id="Oval-2-Copy-171" cx="92" cy="134" r="2"></circle>
                        <circle id="Oval-2-Copy-170" cx="104" cy="134" r="2"></circle>
                        <circle id="Oval-2-Copy-169" cx="115" cy="134" r="2"></circle>
                        <circle id="Oval-2-Copy-168" cx="126" cy="134" r="2"></circle>
                        <circle id="Oval-2-Copy-167" cx="137" cy="134" r="2"></circle>
                        <circle id="Oval-2-Copy-166" cx="149" cy="134" r="2"></circle>
                        <circle id="Oval-2-Copy-165" cx="160" cy="134" r="2"></circle>
                    </g>
                </g>
                <polygon id="Shape" fill="#ACF4F3" points="160 2 160 123.814516 123 161 123 39.1644632"></polygon>
                <g id="Group-17-Copy">
                    <mask id="mask-2" fill="white">
                        <use xlink:href="#path-1"></use>
                    </mask>
                    <g id="Mask"></g>
                    <g mask="url(#mask-2)" stroke="#000000" stroke-linecap="square" stroke-width="2">
                        <g transform="translate(-21.000000, -7.000000)">
                            <path d="M0.5,34 L179.5,34" id="Line"></path>
                            <path d="M0.5,42 L179.5,42" id="Line-Copy-5"></path>
                            <path d="M0.5,18 L179.5,18" id="Line-Copy"></path>
                            <path d="M0.5,10 L179.5,10" id="Line-Copy-3"></path>
                            <path d="M0.5,26 L179.5,26" id="Line-Copy-4"></path>
                        </g>
                    </g>
                </g>
            </g>
        </g>
    </g>
</svg>