<?xml version="1.0" encoding="UTF-8"?>
<svg width="178px" height="155px" viewBox="0 0 178 155" version="1.1" xmlns="http://www.w3.org/2000/svg" xmlns:xlink="http://www.w3.org/1999/xlink">
    <!-- Generator: Sketch 49.1 (51147) - http://www.bohemiancoding.com/sketch -->
    <title>triangle-sacred-geometry-design-by-Vexels</title>
    <desc>Created with Sketch.</desc>
    <defs></defs>
    <g id="Page-1" stroke="none" stroke-width="1" fill="none" fill-rule="evenodd">
        <g id="front" transform="translate(-748.000000, -727.000000)" fill="#000000" fill-rule="nonzero">
            <g id="triangle-sacred-geometry-design-by-Vexels" transform="translate(748.000000, 727.000000)">
                <path d="M177.90744,154.365675 L89.3265124,0.192199961 C89.3248942,0.189598269 89.3227906,0.188134818 89.3211724,0.185533126 C89.2540178,0.0747986312 89.1339487,0 88.9954323,0 C88.8572395,0 88.7373322,0.0746360255 88.6700158,0.185045309 C88.6683976,0.187809607 88.6659703,0.189598269 88.6643521,0.192199961 L0.0497664071,154.423888 C0.0481482246,154.426815 0.0476627698,154.430067 0.0462064056,154.432994 C0.0316427632,154.459986 0.0193445763,154.487792 0.0115773004,154.517224 C0.0114154821,154.517874 0.0114154821,154.518524 0.0112536639,154.519012 C0.00381002442,154.547468 0.000735477691,154.576575 8.82046956e-05,154.606006 C-0.000235431802,154.614462 0.000411841193,154.622917 0.000735477691,154.631373 C0.00154456893,154.653812 0.00445729741,154.675927 0.00947366312,154.698366 C0.0112536639,154.706659 0.0127100281,154.71479 0.0149754836,154.72292 C0.0233900325,154.752189 0.0342318552,154.780645 0.0499282253,154.807963 C0.0670809597,154.838207 0.0882791503,154.8652 0.112390069,154.88894 C0.122260982,154.898697 0.133911896,154.905201 0.144430083,154.913656 C0.159802816,154.926014 0.174528277,154.939511 0.191519193,154.949267 C0.204626471,154.956747 0.219028295,154.960649 0.232782846,154.966503 C0.249611944,154.973495 0.265308314,154.982276 0.283108322,154.986829 C0.308837423,154.993821 0.335537434,154.996097 0.362399264,154.997398 C0.368710175,154.997724 0.374697451,155 0.381008362,155 L177.61018,155 C177.613093,155 177.615196,155 177.617785,155 C177.828958,155 178,154.827801 178,154.615763 C177.999838,154.520313 177.965047,154.432669 177.90744,154.365675 Z M124.6927,124.743141 L54.7343017,123.526037 L66.0248464,116.975791 C66.186341,117.095306 66.3837593,117.163763 66.5912103,117.163763 L111.399492,117.163763 C111.402243,117.163763 111.404509,117.163763 111.407098,117.163763 C111.617947,117.163763 111.812129,117.09433 111.970064,116.978067 L124.361781,124.167354 L124.6927,124.743141 Z M88.9954323,79.1299597 L109.744415,115.243064 L68.2464492,115.243064 L88.9954323,79.1299597 Z M112.355838,116.314636 C112.360207,116.278049 112.362796,116.240975 112.362796,116.203413 C112.362796,115.987798 112.292082,115.788606 112.17266,115.628277 L89.8229708,76.7294115 C89.7192453,76.5489191 89.5617962,76.4113547 89.377647,76.3305397 L89.377647,64.40715 L89.7087271,63.8539654 L123.59719,122.836263 L112.355838,116.314636 Z M88.6130558,76.3305397 C88.4290684,76.4111921 88.2714574,76.5489191 88.1677319,76.7294115 L65.7635099,115.723239 C65.6597844,115.903569 65.620139,116.109753 65.6424699,116.310083 L54.4389834,122.810084 L88.6130558,65.685231 L88.6130558,76.3305397 Z M53.0725902,123.602787 L41.1514398,130.518896 L88.6130558,47.9129136 L88.6130558,64.1942991 L53.0725902,123.602787 Z M53.4486558,124.271909 L125.355022,125.522998 C125.357287,125.522998 125.359391,125.522998 125.361656,125.522998 C125.362951,125.522998 125.364246,125.522998 125.365378,125.522998 C125.584157,125.510802 125.751638,125.352099 125.751638,125.13876 C125.751638,125.067214 125.731897,124.999895 125.697591,124.942333 L136.456725,131.184278 L41.5339781,131.184278 L53.4486558,124.271909 Z M124.921511,123.604575 L90.0464418,62.9053236 C89.97864,62.7874345 89.8542017,62.7142619 89.7187599,62.7131236 C89.5875253,62.722067 89.457747,62.7830441 89.3878415,62.8994698 L89.377647,62.9163808 L89.377647,47.9130762 L136.839425,130.518733 L124.921511,123.604575 Z M88.6130558,46.3764522 L39.8274429,131.287045 L27.9098525,138.201203 L88.6130558,32.5479739 L88.6130558,46.3764522 Z M40.2094957,131.952753 L137.781369,131.952753 L149.698959,138.866911 L28.2919054,138.866911 L40.2094957,131.952753 Z M138.163584,131.287045 L89.377647,46.3767774 L89.377647,32.5481365 L150.081336,138.201366 L138.163584,131.287045 Z M88.6130558,31.0115125 L26.5852083,138.969678 L14.6672943,145.883998 L88.6130558,17.1830342 L88.6130558,31.0115125 Z M26.9675848,139.63506 L151.02328,139.63506 L162.941032,146.549218 L15.0496708,146.549218 L26.9675848,139.63506 Z M151.405494,138.969515 L89.377647,31.0118377 L89.377647,17.1830342 L163.32357,145.884161 L151.405494,138.969515 Z M88.6130558,15.6462476 L13.3431355,146.652148 L1.42538334,153.566305 L88.6132176,1.81776934 L88.6132176,15.6462476 L88.6130558,15.6462476 Z M13.7253502,147.317693 L164.265353,147.317693 L176.183267,154.231851 L1.80743622,154.231851 L13.7253502,147.317693 Z M164.647729,146.65231 L89.377647,15.6467354 L89.377647,1.81793195 L176.565805,153.566468 L164.647729,146.65231 Z" id="Shape"></path>
            </g>
        </g>
    </g>
</svg>