<?xml version="1.0" encoding="UTF-8"?>
<svg width="69px" height="68px" viewBox="0 0 69 68" version="1.1" xmlns="http://www.w3.org/2000/svg" xmlns:xlink="http://www.w3.org/1999/xlink">
    <!-- Generator: Sketch 49.1 (51147) - http://www.bohemiancoding.com/sketch -->
    <title>Group</title>
    <desc>Created with Sketch.</desc>
    <defs></defs>
    <g id="Page-1" stroke="none" stroke-width="1" fill="none" fill-rule="evenodd">
        <g id="front" transform="translate(-109.000000, -238.000000)">
            <g id="Group" transform="translate(109.000000, 238.000000)">
                <rect id="Rectangle-4" fill="#F4D2EB" x="13" y="0" width="56" height="56"></rect>
                <g id="Group-11-Copy" transform="translate(0.000000, 20.000000)" fill="#000000">
                    <circle id="Oval-2-Copy-249" cx="2" cy="2" r="2"></circle>
                    <circle id="Oval-2-Copy-248" cx="13" cy="2" r="2"></circle>
                    <circle id="Oval-2-Copy-247" cx="25" cy="2" r="2"></circle>
                    <circle id="Oval-2-Copy-246" cx="36" cy="2" r="2"></circle>
                    <circle id="Oval-2-Copy-245" cx="47" cy="2" r="2"></circle>
                    <circle id="Oval-2-Copy-244" cx="2" cy="13" r="2"></circle>
                    <circle id="Oval-2-Copy-243" cx="13" cy="13" r="2"></circle>
                    <circle id="Oval-2-Copy-242" cx="25" cy="13" r="2"></circle>
                    <circle id="Oval-2-Copy-241" cx="36" cy="13" r="2"></circle>
                    <circle id="Oval-2-Copy-240" cx="47" cy="13" r="2"></circle>
                    <circle id="Oval-2-Copy-134" cx="2" cy="24" r="2"></circle>
                    <circle id="Oval-2-Copy-133" cx="13" cy="24" r="2"></circle>
                    <circle id="Oval-2-Copy-132" cx="25" cy="24" r="2"></circle>
                    <circle id="Oval-2-Copy-131" cx="36" cy="24" r="2"></circle>
                    <circle id="Oval-2-Copy-130" cx="47" cy="24" r="2"></circle>
                    <circle id="Oval-2-Copy-129" cx="2" cy="35" r="2"></circle>
                    <circle id="Oval-2-Copy-128" cx="13" cy="35" r="2"></circle>
                    <circle id="Oval-2-Copy-127" cx="25" cy="35" r="2"></circle>
                    <circle id="Oval-2-Copy-126" cx="36" cy="35" r="2"></circle>
                    <circle id="Oval-2-Copy-125" cx="47" cy="35" r="2"></circle>
                    <circle id="Oval-2-Copy-124" cx="2" cy="46" r="2"></circle>
                    <circle id="Oval-2-Copy-123" cx="13" cy="46" r="2"></circle>
                    <circle id="Oval-2-Copy-122" cx="25" cy="46" r="2"></circle>
                    <circle id="Oval-2-Copy-121" cx="36" cy="46" r="2"></circle>
                    <circle id="Oval-2-Copy-120" cx="47" cy="46" r="2"></circle>
                </g>
            </g>
        </g>
    </g>
</svg>