<?xml version="1.0" encoding="UTF-8"?>
<svg width="148px" height="171px" viewBox="0 0 148 171" version="1.1" xmlns="http://www.w3.org/2000/svg" xmlns:xlink="http://www.w3.org/1999/xlink">
    <!-- Generator: Sketch 49.1 (51147) - http://www.bohemiancoding.com/sketch -->
    <title>3d-sacred-geometry-by-Vexels</title>
    <desc>Created with Sketch.</desc>
    <defs></defs>
    <g id="Page-1" stroke="none" stroke-width="1" fill="none" fill-rule="evenodd">
        <g id="front" transform="translate(-485.000000, -740.000000)" fill="#000000" fill-rule="nonzero">
            <g id="3d-sacred-geometry-by-Vexels" transform="translate(485.000000, 740.000000)">
                <path d="M147.999845,127.784142 L147.999845,43.2147698 C147.999845,43.2125934 147.999379,43.2108834 147.999379,43.2091734 C147.999224,43.1762171 147.997206,43.1434162 147.99286,43.1104599 C147.992705,43.1085944 147.992239,43.1070399 147.991929,43.1051744 C147.987893,43.075949 147.98184,43.0465681 147.974389,43.0176536 C147.972371,43.0101918 147.970509,43.0028855 147.968336,42.9955791 C147.961351,42.9716391 147.953279,42.9478546 147.944122,42.9242255 C147.941328,42.9172301 147.938844,42.9102346 147.935895,42.9032392 C147.923633,42.8746356 147.910284,42.8464983 147.894297,42.8188274 C147.894142,42.8185165 147.893986,42.8182056 147.893676,42.8178947 C147.893055,42.8166511 147.892279,42.8157183 147.891503,42.8146302 C147.876136,42.7882029 147.859218,42.7633302 147.841368,42.7393902 C147.836401,42.7327057 147.830813,42.7261766 147.825535,42.7196475 C147.810324,42.7005266 147.794647,42.6823385 147.777884,42.6647721 C147.772296,42.6591758 147.766708,42.6532685 147.760965,42.6475167 C147.739079,42.626064 147.716262,42.605544 147.692359,42.5870449 C147.691583,42.5865786 147.690962,42.5858013 147.690341,42.5853349 C147.664264,42.5652813 147.636791,42.5472486 147.608696,42.5304595 C147.606834,42.5295268 147.605282,42.5278168 147.603264,42.5270395 L74.6506723,0.343398779 C74.503526,0.130270791 74.2616969,0 74,0 C73.7383031,0 73.4963188,0.130270791 73.3491725,0.343398779 L0.396736235,42.5270395 C0.395649712,42.5275059 0.394873623,42.5282832 0.3937871,42.528905 C0.337598322,42.5617059 0.285289984,42.6018131 0.23794861,42.6486049 C0.232826429,42.653424 0.228014683,42.6588649 0.222892501,42.6639949 C0.205818563,42.6817167 0.189520713,42.7002157 0.173998951,42.7199584 C0.16887677,42.7264875 0.163444153,42.7327057 0.158477189,42.7393902 C0.141713686,42.7620866 0.125881489,42.7855602 0.111291033,42.8102774 C0.109583639,42.8132311 0.10756581,42.8158738 0.105858416,42.8189829 L0.105703199,42.8189829 C0.0900262192,42.8463429 0.0766775039,42.8741692 0.0645705296,42.902151 C0.061155742,42.9103901 0.0582066072,42.9187846 0.0549470372,42.9268682 C0.0464100682,42.9489428 0.0388044048,42.9713282 0.0321300472,42.9940246 C0.0298017829,43.0024191 0.027318301,43.0105027 0.0251452543,43.0190527 C0.0181604615,43.0464127 0.0124174095,43.0740836 0.00853696906,43.101599 C0.0080713162,43.1048635 0.00729522811,43.1082835 0.00682957525,43.1115481 C0.00263869953,43.1437271 0.000620870477,43.1759062 0.000310435239,43.2080853 C0.000310435239,43.2102616 0,43.212438 0,43.2147698 L0,127.784764 C0,127.785075 0,127.785386 0,127.785852 L0,127.875083 C0,128.158787 0.151181961,128.42135 0.396581017,128.562813 L73.6035742,170.893514 C73.7261961,170.964556 73.8630981,171 74,171 C74.1369019,171 74.2739591,170.964556 74.396581,170.893514 L147.603419,128.562813 C147.848818,128.42135 148,128.158787 148,127.875083 L148,127.786163 C147.999845,127.785541 147.999845,127.784919 147.999845,127.784142 Z M109.237038,63.5077877 L86.0647551,63.5077877 L74.5494704,43.5325186 L97.7217535,43.5325186 L109.237038,63.5077877 Z M99.553011,43.5325186 L145.064214,43.5325186 L110.896004,63.2088489 L99.553011,43.5325186 Z M85.4238616,106.3675 L62.5761384,106.3675 L50.2681573,85.0170809 L61.7520881,65.0962208 L86.2479119,65.0962208 L97.7315322,85.0170809 L85.4238616,106.3675 Z M98.647161,86.605514 L110.039513,106.3675 L87.2549638,106.3675 L98.647161,86.605514 Z M62.9422968,107.002842 L85.0573928,107.002842 L74,126.184361 L62.9422968,107.002842 Z M60.744881,106.3675 L37.9601762,106.3675 L49.3525286,86.605514 L60.744881,106.3675 Z M49.901999,84.3820497 L38.7843818,65.0962208 L61.0196162,65.0962208 L49.901999,84.3820497 Z M85.3321279,63.5077877 L62.6677168,63.5077877 L74,43.8499565 L85.3321279,63.5077877 Z M86.9803838,65.0962208 L109.215463,65.0962208 L98.0978458,84.3820497 L86.9803838,65.0962208 Z M74.3171096,42.8968655 L74.3171096,2.93280279 L97.35544,42.8968655 L74.3171096,42.8968655 Z M73.6828904,42.8968655 L50.6444048,42.8968655 L73.6828904,2.93280279 L73.6828904,42.8968655 Z M73.4506848,43.5325186 L61.9354001,63.5077877 L38.7629617,63.5077877 L50.2782465,43.5325186 L73.4506848,43.5325186 Z M37.1038406,63.2091598 L2.93578605,43.5325186 L48.4468338,43.5325186 L37.1038406,63.2091598 Z M36.310989,64.5846204 L24.8948883,84.3881124 L2.131914,44.901761 L36.310989,64.5846204 Z M37.3999958,65.8716274 L48.9863702,85.9703273 L37.396581,106.074779 L25.8103618,85.9765455 L37.3999958,65.8716274 Z M36.9562286,106.581405 L2.4068044,126.574396 L25.4440482,86.6117322 L36.9562286,106.581405 Z M37.2733382,107.131869 L48.721569,126.991014 L2.95503304,126.991014 L37.2733382,107.131869 Z M37.9316162,107.002842 L61.1110393,107.002842 L72.6336193,126.991014 L49.4541961,126.991014 L37.9316162,107.002842 Z M73.2069932,128.579447 L73.2069932,168.19467 L50.3698249,128.579447 L73.2069932,128.579447 Z M74.7928516,128.579447 L97.6155847,128.579447 L74.7928516,168.169642 L74.7928516,128.579447 Z M75.3662255,126.991014 L86.8888055,107.002842 L110.053793,107.002842 L98.5313686,126.991014 L75.3662255,126.991014 Z M110.715641,107.125495 L145.045122,126.991014 L99.2638406,126.991014 L110.715641,107.125495 Z M111.033061,106.575187 L122.548501,86.5992958 L145.593196,126.574396 L111.033061,106.575187 Z M110.596124,106.062343 L99.0134746,85.9700164 L110.599849,65.8714719 L122.182343,85.9637982 L110.596124,106.062343 Z M111.688856,64.5846204 L145.846356,44.9141974 L123.097972,84.3755206 L111.688856,64.5846204 Z M99.1866974,42.8968655 L76.2441363,3.09882809 L145.071509,42.897021 L99.1866974,42.897021 L99.1866974,42.8968655 Z M48.8131474,42.8968655 L2.92849082,42.8968655 L71.7558637,3.09882809 L48.8131474,42.8968655 Z M1.58616885,45.225728 L24.5285747,85.02361 L1.58616885,124.821492 L1.58616885,45.225728 Z M49.6373529,128.579447 L72.657678,168.512419 L3.59716833,128.579447 L49.6373529,128.579447 Z M98.3480566,128.579447 L144.402987,128.579447 L75.3205915,168.52501 L98.3480566,128.579447 Z M123.46413,85.0108627 L146.413831,45.2003889 L146.413831,124.821492 L123.46413,85.0108627 Z" id="Shape"></path>
            </g>
        </g>
    </g>
</svg>